<svg width="32" height="32" viewBox="0 0 32 32" fill="none" xmlns="http://www.w3.org/2000/svg">
<rect width="32" height="32" rx="16" fill="#006FCF"/>
<path fill-rule="evenodd" clip-rule="evenodd" d="M9.36405 11.9436L9.15918 11.3333H7.09947L7.09941 12.4611L6.60641 11.3333H5.04896L3.33333 15.2578H5.28945L5.55134 14.6857H6.12311L6.33267 15.2578H15.4754L15.4973 14.8434L15.8489 15.2578H18.3347L18.3346 14.9005L18.411 14.958L18.4639 14.9968C18.6158 15.1064 18.7857 15.2124 18.9713 15.2578H20.9019L21.1638 14.6857H21.7688L22.0307 15.2578H24.5168L24.5167 14.8048L24.8163 15.2578H26.5076V11.3333H24.7027L24.7027 11.7111L24.4618 11.3333H22.7119L22.7118 12.3412L22.2712 11.3333H19.5279L19.4955 11.3336L19.4539 11.3346C19.0115 11.349 18.6315 11.4858 18.3347 11.7148V11.3853L9.56894 11.3333L9.36405 11.9436ZM16.1123 16.69L14.5914 16.7421L13.3696 16.742L12.979 17.2491L12.5885 16.742H8.51402V20.6665L12.5885 20.6667L12.9655 20.125L13.3595 20.6665H15.8199L15.8198 19.7304L16.0701 19.7303L16.1106 19.7299C16.38 19.7243 16.6287 19.6626 16.8442 19.5546L16.8441 20.6665H18.6188L18.6408 20.2521L18.9924 20.6665L26.8376 20.6667C27.7115 20.6542 28.3413 20.0969 28.3413 19.2503L28.3411 19.2232L28.3402 19.1882C28.3275 18.8171 28.2004 18.512 27.9863 18.2907L27.9828 18.2873L28.6667 16.794H26.3386L26.2883 16.7947C26.2214 16.7965 26.1559 16.8018 26.092 16.8104L26.0995 16.794H23.7715L23.7299 16.7945C23.4813 16.7999 23.2511 16.8541 23.0498 16.948L23.0498 16.742H19.6732L19.6733 16.9232C19.4502 16.8067 19.1876 16.742 18.8992 16.742H16.8441L16.8442 16.8562C16.6328 16.7496 16.3886 16.69 16.1225 16.69H16.1123Z" fill="white"/>
<path fill-rule="evenodd" clip-rule="evenodd" d="M6.74452 14.6737H7.4256L6.22061 11.9174H5.43475L4.22977 14.6737H4.91085L5.1728 14.1016H6.53496L6.74452 14.6737ZM8.31624 12.4374V14.6737H7.68755V11.9174H8.73537L9.36406 13.7896L9.99274 11.9174H11.0406V14.6737H10.4119V12.4374L9.62601 14.6737H9.04971L8.31624 12.4374ZM23.9287 12.8015V14.6737H23.3V11.9174H24.1382L25.1337 13.4776L25.2908 13.7376V11.9174H25.9195V14.6737H25.1337L24.0335 13.0095L23.9287 12.8015ZM15.2318 20.0824V19.1463H16.0701L16.0947 19.1461C16.6583 19.1358 17.0655 18.7741 17.0655 18.2102C17.0655 17.9663 16.9848 17.7452 16.8397 17.5792C16.6807 17.3974 16.4443 17.2817 16.1519 17.2744L16.1225 17.274L14.6031 17.3261V20.0824H15.2318ZM17.4322 20.0824V17.3261H18.8992L18.9248 17.3263C19.4863 17.337 19.8422 17.6979 19.8422 18.2102C19.8422 18.3993 19.7881 18.5669 19.6847 18.7033L19.6732 18.7181C19.5531 18.8687 19.3711 18.9794 19.1342 19.0364L19.1087 19.0423L20.0518 20.0824H19.2659L18.4276 19.0943H18.1133L18.0609 20.0824H17.4322ZM22.4617 20.0824V19.5103H20.89V18.9383H22.4093V18.3662H20.89V17.8461H22.4617V17.3261H20.2613V20.0824H22.4617ZM24.2687 20.1342L24.243 20.1344H22.8809V19.5623H24.2954L24.3078 19.5621C24.4607 19.5568 24.6084 19.4529 24.5574 19.2503C24.5574 19.0993 24.4592 18.997 24.3105 18.9906L24.2954 18.9903H23.6667L23.6373 18.99C23.3549 18.9846 23.1359 18.9014 22.9974 18.7403L22.9934 18.7355C22.8862 18.6082 22.8285 18.4331 22.8285 18.2102C22.8285 17.7492 23.1842 17.3891 23.7454 17.3783L23.7715 17.3781H25.186L24.9241 17.9501H23.7191L23.7041 17.9505C23.5553 17.9569 23.4572 18.0592 23.4572 18.2102C23.4572 18.3612 23.5553 18.4634 23.7041 18.4699L23.7191 18.4702H24.3478L24.3726 18.4704C24.8816 18.4785 25.186 18.7385 25.186 19.2503C25.186 19.7626 24.8302 20.1235 24.2687 20.1342ZM26.8358 20.1342L26.8102 20.1344H25.448V19.5623H26.8626L26.8789 19.5621C27.0775 19.5568 27.1755 19.4529 27.1245 19.2503C27.1245 19.0993 27.0264 18.997 26.8776 18.9906L26.8626 18.9903H26.2339L26.199 18.9899C26.0147 18.9857 25.8576 18.9482 25.7321 18.8771C25.5161 18.7544 25.3956 18.5321 25.3956 18.2102C25.3956 17.7492 25.7513 17.3891 26.3126 17.3783L26.3386 17.3781H27.7532L27.4912 17.9501H26.2863L26.2712 17.9505C26.1224 17.9569 26.0243 18.0592 26.0243 18.2102C26.0243 18.3612 26.1224 18.4634 26.2712 18.4699L26.2863 18.4702H26.9149L26.9397 18.4704C27.4487 18.4785 27.7532 18.7385 27.7532 19.2503C27.7532 19.7626 27.3973 20.1235 26.8358 20.1342ZM12.979 19.1463L12.2979 20.0304H11.5121L12.6123 18.6782L11.5121 17.3261H12.2979L12.979 18.2102L13.6601 17.3261H14.446L13.3457 18.6782L14.446 20.0824H13.6601L12.979 19.1463ZM9.73079 19.5103V18.9383H11.2501V18.3662H9.73079V17.8461H11.3025V17.3261H9.1021V20.0824H11.3025V19.5103H9.73079ZM20.5233 14.6737L20.7852 14.1016H22.1474L22.4093 14.6737H23.0904L21.8854 11.9174H21.0472L19.8422 14.6737H20.5233ZM19.5279 11.9174H20.2613V12.4894H19.5802L19.5568 12.4897C19.1078 12.4997 18.8554 12.7989 18.847 13.2463L18.8468 13.2695V13.3215L18.847 13.3448C18.8554 13.7922 19.1078 14.0914 19.5568 14.1014L19.5802 14.1016H19.7374L19.4755 14.6737L19.4491 14.6735C18.6878 14.6621 18.2286 14.156 18.2183 13.3495L18.2181 13.3215L18.2183 13.2436C18.2285 12.4854 18.6884 11.93 19.5 11.9176L19.5279 11.9174ZM17.7466 14.6737V11.9694H17.1179V14.6737H17.7466ZM14.9699 13.6856L14.9175 14.6737H14.2888V11.9174H15.7557L15.7814 11.9176C16.3429 11.9283 16.6988 12.2892 16.6988 12.8015C16.6988 13.21 16.4462 13.5182 15.9908 13.6277L15.9653 13.6336L16.9083 14.6737H16.1225L15.2842 13.6856H14.9699ZM13.8173 14.6737V14.1016H12.2455V13.5296H13.7649V12.9575H12.2455V12.4374H13.8173V11.9174H11.6169V14.6737H13.8173ZM5.64432 12.9575L5.85388 12.3854L6.06344 12.9575L6.3254 13.5816H5.38236L5.64432 12.9575ZM21.3091 12.9575L21.5187 12.3854L21.7283 12.9575L21.9902 13.5816H21.0472L21.3091 12.9575ZM19.2659 18.2102C19.2659 18.0542 19.1611 17.8981 18.8992 17.8981L18.1133 17.8461V18.5222H18.8992C19.1611 18.5222 19.2659 18.3662 19.2659 18.2102ZM16.0701 18.6262C16.332 18.6262 16.4368 18.4702 16.4368 18.2622L16.4365 18.2467C16.4289 18.0464 16.2731 17.8981 16.0177 17.8981H15.2318V18.6262H16.0701ZM16.1225 12.8015C16.1225 12.6455 16.0177 12.4894 15.7557 12.4894L14.9699 12.4374V13.1135H15.7557C16.0177 13.1135 16.1225 12.9575 16.1225 12.8015Z" fill="#006FCF"/>
</svg>
